 <svg  version="1.0" xmlns="http://www.w3.org/2000/svg"  width="300.000000pt" height="300.000000pt" viewBox="0 0 300.000000 300.000000"  preserveAspectRatio="xMidYMid meet">  <g transform="translate(0.000000,300.000000) scale(0.100000,-0.100000)" fill="#ffffff" stroke="none"> <path d="M2319 2559 c-15 -6 -39 -27 -54 -49 l-27 -39 -268 0 c-148 -1 -277 -4 -287 -8 -46 -16 -74 -48 -112 -128 l-40 -85 -470 0 c-422 0 -474 -2 -506 -17 -42 -20 -75 -71 -75 -119 0 -19 -4 -34 -10 -34 -5 0 -26 18 -47 41 -23 24 -51 43 -73 48 -135 30 -215 -131 -111 -226 26 -23 45 -33 69 -33 46 0 93 24 117 60 11 16 28 30 37 30 15 0 17 -18 17 -185 0 -102 3 -190 6 -195 4 -6 -12 -10 -38 -10 -40 0 -46 3 -57 29 -14 36 -56 76 -93 90 -62 24 -131 5 -181 -48 -24 -25 -30 -42 -34 -90 -5 -71 14 -116 63 -149 51 -35 96 -42 150 -24 44 14 70 39 110 107 8 14 18 16 43 10 l32 -7 0 -189 c0 -180 -1 -189 -19 -189 -11 0 -23 9 -26 20 -11 35 -71 72 -115 72 -108 -2 -165 -123 -99 -211 54 -74 172 -59 219 28 9 18 14 20 26 10 11 -9 14 -39 14 -126 0 -63 5 -123 11 -134 16 -31 47 -59 76 -70 15 -5 161 -10 345 -10 176 0 325 -2 332 -5 19 -7 18 -76 -2 -100 -29 -34 -57 -44 -127 -44 -60 0 -69 -3 -96 -29 -24 -25 -29 -37 -29 -80 0 -42 5 -56 29 -83 l28 -32 498 1 c478 1 498 1 524 20 55 42 58 137 4 180 -23 19 -41 23 -98 23 -65 0 -72 2 -106 33 -30 28 -35 39 -34 72 l1 40 319 2 c176 1 338 5 360 8 31 4 47 14 70 43 l30 37 2 660 c3 737 6 704 -66 752 l-34 23 -448 0 c-477 0 -469 -1 -434 46 8 10 15 26 15 35 0 8 13 27 28 42 l28 27 266 0 267 0 21 -30 c28 -40 69 -60 121 -60 35 0 48 6 80 39 33 33 39 45 39 82 0 99 -90 161 -181 128z m96 -23 c38 -16 65 -60 65 -107 0 -44 -56 -99 -101 -99 -48 0 -81 20 -101 58 l-16 33 -284 -1 c-332 0 -315 5 -365 -114 l-32 -76 462 0 c440 0 464 -1 494 -20 17 -10 37 -28 43 -39 14 -28 15 -1333 0 -1361 -5 -10 -22 -28 -36 -39 -26 -20 -37 -21 -380 -21 l-354 0 0 -57 c0 -52 3 -60 37 -95 37 -38 38 -38 115 -38 70 0 82 -3 103 -25 35 -34 35 -96 0 -130 l-24 -25 -492 0 c-492 0 -493 0 -516 22 -33 31 -32 100 2 133 21 22 33 25 97 25 70 0 73 1 110 37 35 34 38 41 38 95 l0 58 -345 0 c-385 0 -394 1 -421 65 -10 24 -14 74 -14 160 l0 125 -33 0 c-28 0 -36 -5 -49 -33 -53 -111 -219 -63 -204 58 13 110 162 130 205 28 l11 -28 280 2 c186 1 286 5 300 13 12 6 34 32 50 57 l29 46 -29 38 c-43 53 -80 140 -93 215 l-11 64 -213 0 -213 0 -2 -202 c-4 -273 -22 -273 -26 0 l-2 202 -60 0 c-53 0 -60 -2 -60 -19 0 -25 -44 -77 -81 -96 -86 -45 -199 24 -199 121 0 104 83 170 179 144 44 -12 89 -58 97 -99 l5 -26 287 0 287 0 11 67 c14 81 50 161 94 211 l33 38 -24 46 c-42 81 -51 83 -311 83 l-228 0 -2 -205 c-2 -128 -7 -205 -13 -205 -6 0 -11 77 -13 205 l-2 205 -33 0 c-27 0 -36 -6 -51 -34 -59 -109 -225 -55 -202 67 19 102 170 117 206 21 l10 -24 269 0 c167 0 280 -4 298 -11 38 -14 71 -46 95 -93 l20 -38 26 24 c65 59 157 96 270 106 l73 7 30 70 c16 38 29 71 29 72 0 2 -215 3 -479 3 l-478 0 -27 -26 c-18 -18 -26 -37 -26 -60 0 -24 -5 -34 -15 -34 -19 0 -20 45 -2 80 7 13 28 35 46 47 l34 23 481 0 482 0 13 38 c32 87 64 142 96 162 30 19 49 20 319 20 269 0 286 1 286 18 0 10 12 30 28 44 43 41 65 45 117 24z m-920 -366 c3 -5 -4 -29 -15 -53 -20 -42 -22 -43 -68 -45 -73 -3 -142 -22 -202 -55 -30 -16 -59 -33 -64 -38 -18 -17 -34 -9 -56 25 -11 19 -36 44 -54 55 -31 20 -49 21 -260 21 -245 0 -238 -2 -216 55 5 14 20 29 32 34 31 11 896 12 903 1z m-502 -174 c15 -5 27 -14 27 -22 0 -8 3 -14 8 -14 4 0 12 -12 19 -26 11 -23 9 -31 -15 -68 -55 -82 -100 -201 -93 -243 1 -10 -43 -13 -194 -13 l-195 0 1 193 c1 105 3 194 4 197 5 8 408 4 438 -4z m-92 -463 c34 -5 37 -8 43 -46 10 -64 35 -126 78 -191 l38 -58 -20 -33 c-11 -18 -33 -38 -48 -44 -27 -11 -155 -15 -339 -13 l-103 2 0 188 c0 104 3 192 6 195 7 7 287 7 345 0z"/> <path d="M2315 2495 c-62 -61 3 -162 86 -133 58 20 70 100 21 138 -34 27 -77 25 -107 -5z m93 -15 c26 -25 28 -57 5 -82 -21 -24 -58 -23 -84 3 -23 23 -19 54 13 82 26 22 39 22 66 -3z"/> <path d="M1554 2163 c-9 -21 -24 -57 -34 -80 l-19 -43 25 0 c13 0 24 -6 24 -13 0 -10 -19 -12 -86 -9 -107 6 -191 -15 -272 -68 -116 -75 -192 -197 -204 -330 -3 -32 -1 -34 26 -35 16 0 31 -6 33 -12 3 -9 -7 -13 -30 -13 l-34 0 9 -57 c13 -92 68 -191 141 -260 57 -53 103 -79 190 -107 20 -6 23 -26 3 -26 -30 0 -125 43 -172 79 l-49 37 -21 -41 c-12 -22 -36 -50 -54 -62 -32 -22 -41 -23 -266 -23 l-234 0 0 -55 0 -55 1020 0 1020 0 0 576 0 576 -29 29 -29 29 -472 0 -471 0 -15 -37z m968 -5 l23 -19 0 -560 0 -559 -130 -1 c-120 -1 -1727 0 -1822 1 -37 0 -42 3 -40 23 0 12 4 24 8 27 4 3 100 4 214 3 232 -2 248 2 312 74 l31 37 41 -27 c22 -15 44 -27 49 -27 4 0 13 -5 20 -12 13 -13 28 -17 84 -25 30 -4 39 -1 45 12 10 28 -8 46 -74 70 -63 24 -76 33 -150 99 -48 43 -110 158 -117 218 -4 33 -1 39 25 52 28 14 29 13 29 -8 0 -28 18 -46 47 -46 13 0 29 -10 39 -25 15 -23 15 -27 -4 -57 -25 -40 -16 -62 42 -109 l37 -31 38 17 c44 19 81 8 81 -24 0 -38 32 -59 89 -57 56 2 81 20 81 58 0 10 11 24 25 30 21 9 32 8 61 -6 33 -15 39 -15 59 -2 31 21 76 81 73 97 -2 7 -11 21 -20 31 -24 25 -5 67 34 75 37 7 45 20 52 76 5 42 3 51 -19 73 -13 13 -33 24 -44 24 -29 0 -37 40 -16 84 17 35 17 38 -1 59 -30 35 -68 66 -82 67 -7 0 -26 -7 -41 -15 -37 -18 -81 -1 -81 32 0 36 -26 53 -82 53 -58 0 -88 -19 -88 -57 0 -37 -41 -48 -86 -22 l-37 20 -30 -28 c-17 -15 -37 -35 -44 -43 -14 -17 -17 -70 -4 -70 17 0 22 -38 9 -59 -6 -11 -24 -23 -37 -26 -37 -9 -51 -24 -51 -54 -1 -24 -2 -24 -14 -8 -7 9 -21 17 -30 17 -19 0 -20 20 -5 69 28 89 61 143 126 205 45 45 51 49 123 81 58 26 77 30 170 31 58 1 111 2 118 3 16 1 15 27 -3 54 -12 20 -12 27 6 67 11 24 25 47 31 51 6 4 212 7 459 7 431 0 449 -1 471 -20z m-1028 -254 c3 -9 6 -26 6 -38 0 -18 10 -27 42 -39 40 -16 43 -16 63 3 29 27 35 26 78 -18 l36 -37 -23 -29 c-22 -29 -22 -31 -7 -67 13 -32 22 -39 54 -44 l38 -7 -3 -56 -3 -57 -37 -3 c-21 -2 -38 -9 -38 -15 0 -7 -7 -24 -14 -39 -14 -26 -13 -30 11 -59 l26 -31 -40 -40 -41 -41 -35 27 c-20 15 -38 23 -41 17 -4 -5 -19 -12 -36 -16 -25 -5 -29 -12 -32 -43 l-3 -37 -57 -3 -56 -3 -7 40 c-5 34 -11 41 -36 46 -16 4 -31 11 -35 16 -3 5 -20 -2 -38 -16 l-32 -25 -37 38 c-43 44 -44 48 -17 77 20 21 20 23 3 63 -16 36 -23 41 -53 44 l-35 3 -3 56 -3 56 39 7 c34 5 41 11 54 45 15 37 15 40 -8 67 l-23 29 37 38 c20 20 40 37 44 37 5 0 21 -9 37 -21 27 -20 29 -20 64 -3 29 14 37 24 42 56 l7 38 53 0 c39 0 54 -4 59 -16z"/> <path d="M1977 2053 c-36 -6 -53 -36 -31 -57 13 -14 49 -16 240 -16 136 0 233 4 245 10 20 11 26 45 9 55 -12 7 -419 14 -463 8z m453 -38 c0 -13 -31 -15 -237 -13 -178 2 -237 6 -241 16 -3 9 49 12 237 12 209 0 241 -2 241 -15z"/> <path d="M1622 2008 c-7 -7 -12 -17 -12 -23 0 -22 89 -85 120 -85 5 0 14 9 21 21 9 17 7 25 -13 46 -25 27 -69 53 -91 53 -7 0 -18 -5 -25 -12z m72 -36 c39 -27 57 -52 37 -52 -14 0 -101 62 -101 72 0 15 25 7 64 -20z"/> <path d="M2157 1892 c-15 -16 -15 -21 -3 -38 13 -17 30 -19 134 -22 128 -4 162 4 162 38 0 32 -33 40 -158 40 -102 0 -121 -3 -135 -18z m271 -21 c3 -8 -39 -11 -127 -11 -113 0 -152 6 -137 21 10 10 261 0 264 -10z"/> <path d="M1792 1868 c-19 -19 -14 -40 17 -90 33 -53 43 -60 65 -52 24 9 19 56 -10 100 -37 55 -51 63 -72 42z m69 -80 c12 -24 15 -39 8 -43 -12 -8 -9 -12 -42 49 -15 26 -24 53 -20 59 7 12 25 -10 54 -65z"/> <path d="M2029 1690 c-32 -8 -46 -34 -30 -54 12 -14 44 -16 220 -16 148 0 210 3 219 12 19 19 14 47 -10 53 -31 7 -371 11 -399 5z m401 -35 c0 -13 -27 -15 -207 -13 -154 2 -207 6 -211 16 -3 9 43 12 207 12 182 0 211 -2 211 -15z"/> <path d="M1872 1658 c-19 -19 -15 -112 6 -138 l19 -23 21 21 c16 16 20 31 18 70 -3 69 -33 101 -64 70z m36 -70 c-2 -35 -7 -63 -12 -63 -5 0 -10 28 -12 63 -2 50 0 62 12 62 12 0 14 -12 12 -62z"/> <path d="M2006 1534 c-46 -45 12 -67 158 -62 110 5 126 10 126 37 0 35 -21 41 -146 41 -98 0 -126 -3 -138 -16z m262 -23 c3 -8 -39 -11 -127 -11 -115 0 -143 5 -127 21 10 9 251 0 254 -10z"/> <path d="M2337 1532 c-14 -15 -15 -21 -4 -35 13 -17 84 -26 105 -13 15 9 15 39 0 54 -19 19 -82 15 -101 -6z m91 -21 c2 -7 -11 -11 -37 -11 -36 0 -58 10 -46 22 10 9 79 0 83 -11z"/> <path d="M1847 1432 c-9 -9 -25 -37 -36 -61 -15 -35 -17 -48 -8 -63 7 -10 17 -18 23 -18 17 0 52 42 69 84 15 35 15 39 -1 57 -21 23 -27 24 -47 1z m36 -8 c8 -8 -45 -115 -56 -111 -12 4 -11 11 15 67 23 49 29 56 41 44z"/> <path d="M2153 1318 c-15 -17 -15 -20 2 -38 16 -18 31 -20 145 -20 140 0 163 8 143 53 -10 21 -15 22 -142 22 -114 0 -134 -2 -148 -17z m277 -21 c0 -11 -27 -14 -132 -12 -73 1 -134 3 -136 4 -2 0 0 6 3 11 4 6 60 10 136 10 101 0 129 -3 129 -13z"/> <path d="M1942 1318 c-16 -16 -15 -23 4 -42 11 -12 35 -16 84 -16 49 0 73 4 84 16 37 36 8 54 -84 54 -46 0 -81 -5 -88 -12z m160 -23 c-3 -15 -145 -12 -150 3 -3 10 14 12 75 10 45 -2 77 -7 75 -13z"/> <path d="M1694 1234 c-52 -33 -70 -60 -53 -80 20 -24 52 -16 99 25 38 33 43 42 34 58 -17 27 -35 26 -80 -3z m66 -4 c0 -11 -77 -70 -92 -70 -16 0 -8 29 11 35 10 3 26 14 36 25 19 21 45 27 45 10z"/> <path d="M1948 1179 c-10 -5 -18 -16 -18 -23 0 -35 26 -39 266 -38 129 1 239 4 245 7 13 9 11 39 -3 53 -15 15 -464 16 -490 1z m482 -24 c0 -13 -33 -15 -240 -15 -219 0 -253 3 -233 23 3 4 111 7 240 7 200 0 233 -2 233 -15z"/> <path d="M1493 1153 c-49 -5 -68 -23 -59 -58 7 -28 24 -31 91 -14 59 15 74 33 50 59 -10 11 -23 19 -29 18 -6 -1 -30 -3 -53 -5z m72 -23 c3 -6 -6 -15 -20 -20 -32 -12 -105 -13 -105 -1 0 7 21 12 112 30 4 0 10 -4 13 -9z"/> <path d="M1400 1869 c0 -29 -18 -59 -36 -59 -9 0 -29 -7 -44 -17 -27 -15 -29 -15 -56 6 l-28 22 -24 -24 -24 -25 21 -28 21 -29 -26 -52 c-22 -46 -29 -53 -54 -53 -27 0 -30 -3 -30 -34 0 -34 13 -46 49 -46 11 0 25 -18 39 -51 l21 -51 -21 -29 -22 -29 23 -24 24 -25 32 25 c19 14 36 21 39 15 4 -5 23 -15 44 -22 43 -14 52 -24 52 -61 0 -25 4 -28 34 -28 32 0 35 2 41 40 4 22 12 40 19 40 6 0 29 9 49 19 l38 19 28 -24 28 -23 22 22 c26 29 26 35 1 62 -20 21 -20 21 0 60 11 22 20 44 20 51 0 6 17 14 38 17 34 6 37 9 39 42 1 33 0 35 -32 35 -31 0 -36 4 -58 53 l-24 52 20 28 c19 27 19 29 1 50 -10 12 -20 24 -22 26 -1 3 -16 -5 -32 -17 -27 -20 -32 -21 -62 -8 -18 8 -41 17 -50 20 -10 3 -20 20 -24 40 -6 33 -9 36 -40 36 -28 0 -34 -4 -34 -21z m50 -28 c0 -11 5 -23 10 -26 19 -12 -1 -25 -36 -25 -32 0 -34 1 -20 16 9 8 16 24 16 35 0 10 7 19 15 19 8 0 15 -9 15 -19z m90 -73 c0 -6 6 -8 14 -5 7 3 18 1 23 -4 7 -7 16 -5 27 6 19 20 48 13 40 -10 -3 -8 -10 -15 -15 -15 -29 0 34 -143 66 -148 37 -7 38 -21 2 -38 -47 -23 -82 -106 -64 -153 14 -38 6 -47 -25 -28 -21 14 -28 13 -83 -9 -48 -19 -63 -31 -72 -54 -12 -33 -33 -40 -33 -12 -1 26 -23 50 -63 67 -43 18 -89 19 -104 4 -21 -21 -33 0 -16 30 16 27 16 31 -8 87 -21 48 -31 61 -57 69 -41 12 -40 21 1 38 35 15 51 6 42 -24 -3 -9 3 -27 14 -40 19 -23 19 -24 40 -5 14 13 21 31 21 55 0 76 74 144 152 141 82 -3 81 -4 75 34 -4 28 -3 34 9 29 8 -3 14 -10 14 -15z m-275 2 c3 -5 16 -10 28 -10 21 0 20 -1 -7 -25 l-29 -25 -17 27 c-10 16 -15 31 -13 36 6 10 31 9 38 -3z m234 -13 c16 -20 4 -26 -31 -16 -90 25 -197 -58 -203 -158 -4 -63 -25 -70 -25 -8 0 77 47 147 120 179 44 19 124 21 139 3z"/> <path d="M1390 1679 c-38 -15 -64 -58 -66 -107 -3 -66 46 -112 120 -112 51 0 106 54 106 105 0 41 -30 99 -58 110 -30 12 -76 14 -102 4z m114 -50 c31 -37 33 -63 6 -106 -38 -63 -136 -50 -159 20 -21 63 18 117 85 117 35 0 47 -5 68 -31z"/> <path d="M1392 1617 c-41 -44 -16 -107 42 -107 60 0 88 68 46 110 -27 27 -62 25 -88 -3z m80 -30 c7 -14 4 -23 -13 -38 -25 -22 -22 -21 -43 -13 -16 6 -22 54 -10 67 13 13 56 2 66 -16z"/> <path d="M291 2119 c-82 -32 -58 -159 29 -159 69 0 107 92 58 137 -30 27 -57 34 -87 22z m66 -34 c30 -21 27 -61 -7 -85 -36 -25 -45 -25 -70 2 -26 29 -26 63 2 82 28 20 48 20 75 1z"/> <path d="M166 1659 c-44 -38 -54 -83 -31 -133 44 -93 184 -86 215 9 16 49 4 89 -36 125 -48 42 -100 42 -148 -1z m119 -44 c28 -27 30 -37 14 -68 -16 -29 -28 -37 -61 -37 -27 0 -68 40 -68 67 0 21 46 63 70 63 12 0 32 -11 45 -25z"/> <path d="M212 1598 c-32 -32 8 -80 48 -58 34 18 19 70 -20 70 -9 0 -21 -5 -28 -12z m38 -18 c0 -5 -4 -10 -10 -10 -5 0 -10 5 -10 10 0 6 5 10 10 10 6 0 10 -4 10 -10z"/> <path d="M262 1167 c-47 -50 -10 -137 58 -137 69 0 107 91 57 138 -32 30 -87 29 -115 -1z m96 -15 c19 -19 20 -76 1 -88 -62 -38 -130 35 -82 88 21 23 58 23 81 0z"/> <path d="M530 902 c0 -78 14 -106 63 -120 17 -5 189 -10 380 -11 264 -1 365 -5 418 -16 90 -19 228 -19 318 0 53 11 153 15 421 15 213 1 363 6 381 12 40 14 59 55 59 128 l0 60 -1020 0 -1020 0 0 -68z m923 38 l69 0 -26 -31 c-33 -38 -33 -73 -1 -104 34 -35 86 -34 114 1 12 15 21 36 21 46 0 28 -31 78 -49 78 -8 0 -12 3 -9 6 5 4 754 8 939 5 36 -1 37 -2 35 -38 -4 -70 -15 -92 -50 -98 -17 -2 -188 -6 -381 -8 -279 -3 -366 -7 -429 -20 -71 -16 -224 -18 -276 -4 -90 23 -83 23 -487 25 -318 2 -334 3 -353 22 -15 15 -20 33 -20 70 l0 50 213 2 c116 2 304 2 417 1 113 -1 236 -2 273 -3z m139 -47 c39 -35 7 -98 -48 -91 -18 2 -34 13 -43 29 -13 24 -13 29 2 53 20 30 61 35 89 9z"/> <path d="M1532 878 c-16 -16 -15 -33 3 -48 20 -17 47 5 43 34 -4 24 -28 32 -46 14z"/> <path d="M1310 683 c0 -57 -1 -60 -48 -106 l-48 -47 -75 0 c-61 0 -79 -4 -92 -18 -19 -21 -22 -54 -7 -83 10 -18 27 -19 503 -19 370 0 496 3 505 12 7 7 12 28 12 48 0 52 -13 60 -100 60 l-76 0 -49 50 c-48 49 -49 50 -46 106 l3 56 -34 -6 c-174 -31 -242 -31 -415 0 l-33 6 0 -59z m190 8 c50 -3 120 -1 170 6 46 7 85 11 87 10 2 -2 9 -58 12 -90 2 -14 106 -107 121 -108 8 0 44 -1 80 -2 l65 -2 0 -34 c0 -26 -5 -35 -20 -37 -49 -8 -939 -4 -948 5 -5 5 -7 21 -5 37 3 29 3 29 86 34 l83 5 50 52 c44 47 49 56 49 99 l0 47 43 -8 c23 -4 80 -10 127 -14z"/> <path d="M743 1948 c-21 -28 -22 -49 -3 -68 17 -17 18 -20 3 -28 -19 -11 -21 -61 -2 -73 11 -6 11 -11 1 -21 -16 -16 -15 -63 2 -77 11 -9 19 -9 34 0 22 14 23 48 3 73 -10 12 -10 19 3 38 20 28 20 33 0 53 -15 14 -15 18 1 41 14 22 15 30 4 50 -14 26 -31 31 -46 12z m27 -33 c0 -14 -4 -25 -10 -25 -5 0 -10 11 -10 25 0 14 5 25 10 25 6 0 10 -11 10 -25z m0 -100 c0 -14 -4 -25 -10 -25 -5 0 -10 11 -10 25 0 14 5 25 10 25 6 0 10 -11 10 -25z m0 -100 c0 -14 -4 -25 -10 -25 -5 0 -10 11 -10 25 0 14 5 25 10 25 6 0 10 -11 10 -25z"/> <path d="M736 1465 c-12 -12 -13 -22 -4 -45 5 -17 14 -30 20 -30 5 0 2 -7 -6 -16 -18 -18 -21 -55 -5 -71 8 -8 7 -16 -2 -30 -7 -12 -9 -31 -5 -47 5 -21 12 -27 29 -24 26 4 36 50 16 74 -9 11 -8 18 5 32 20 23 20 41 -1 64 -15 17 -15 19 2 38 15 17 16 24 7 45 -13 28 -34 32 -56 10z m34 -30 c0 -14 -4 -25 -10 -25 -5 0 -10 11 -10 25 0 14 5 25 10 25 6 0 10 -11 10 -25z m0 -100 c0 -14 -4 -25 -10 -25 -5 0 -10 11 -10 25 0 14 5 25 10 25 6 0 10 -11 10 -25z m0 -90 c0 -14 -4 -25 -10 -25 -5 0 -10 11 -10 25 0 14 5 25 10 25 6 0 10 -11 10 -25z"/> <path d="M711 2521 c-7 -5 -24 -6 -37 -3 -26 5 -58 -26 -60 -58 -1 -8 -5 -23 -9 -33 -11 -25 10 -66 39 -77 13 -5 27 -14 31 -19 12 -20 46 -11 86 21 31 25 39 38 39 65 0 18 -4 33 -10 33 -5 0 -10 11 -10 24 0 34 -43 63 -69 47z m-27 -30 c8 -12 -31 -44 -44 -36 -8 5 -6 13 6 26 19 21 30 24 38 10z m60 3 c15 -6 23 -34 10 -34 -13 0 -44 21 -44 30 0 11 11 13 34 4z m-26 -43 c22 -13 11 -54 -15 -56 -27 -2 -41 29 -23 50 14 17 20 18 38 6z m62 -35 c0 -24 -16 -43 -26 -33 -8 7 7 57 17 57 5 0 9 -11 9 -24z m-126 -12 c4 -15 4 -29 1 -33 -8 -7 -35 28 -35 46 0 24 28 13 34 -13z m86 -43 c0 -12 -37 -24 -50 -16 -20 12 -10 25 20 25 17 0 30 -4 30 -9z"/> <path d="M1238 2489 c-9 -12 -14 -32 -12 -45 5 -27 5 -28 -30 -14 -15 5 -25 6 -23 0 1 -5 -6 -15 -17 -23 -15 -11 -17 -17 -7 -35 22 -41 103 -19 87 24 -4 11 -2 15 8 11 23 -9 54 20 50 48 -2 25 -20 55 -33 55 -3 0 -13 -10 -23 -21z m32 -39 c0 -16 -4 -30 -10 -30 -5 0 -10 14 -10 30 0 17 5 30 10 30 6 0 10 -13 10 -30z m-50 -65 c0 -16 -45 -21 -54 -6 -8 12 4 21 31 21 14 0 23 -6 23 -15z"/> <path d="M1283 2404 c-16 -43 49 -71 81 -35 15 17 16 23 6 36 -17 21 -79 20 -87 -1z m68 -19 c0 -5 -12 -11 -26 -13 -18 -2 -25 1 -25 13 0 12 7 15 25 13 14 -2 26 -7 26 -13z"/> <path d="M1243 2363 c-16 -6 -17 -65 -1 -81 27 -27 56 4 49 53 -4 29 -22 39 -48 28z m27 -43 c0 -16 -4 -30 -10 -30 -5 0 -10 14 -10 30 0 17 5 30 10 30 6 0 10 -13 10 -30z"/> <path d="M2724 2224 c-14 -20 -14 -27 -3 -40 10 -13 10 -17 -1 -24 -11 -7 -12 -15 -5 -36 14 -38 40 -52 66 -36 18 11 24 11 39 -3 17 -16 20 -15 39 4 23 23 27 51 10 68 -8 8 -8 13 0 17 6 4 11 15 11 24 0 36 -18 46 -80 48 -54 2 -62 0 -76 -22z m43 -18 c-16 -16 -37 -21 -37 -9 0 16 34 43 43 34 6 -6 4 -15 -6 -25z m93 4 c8 -15 8 -20 -3 -20 -14 0 -37 19 -37 32 0 16 30 7 40 -12z m-39 -59 c-14 -26 -23 -26 -46 -1 -17 19 -17 21 0 40 18 20 19 20 38 2 16 -16 17 -23 8 -41z m-56 -21 c21 -23 12 -39 -13 -24 -19 12 -29 44 -14 44 5 0 17 -9 27 -20z m98 13 c8 -7 -21 -43 -35 -43 -12 0 -10 19 5 35 14 16 21 18 30 8z"/> <path d="M2802 1738 c-17 -17 -15 -64 4 -82 31 -32 54 -14 54 43 0 28 -16 51 -35 51 -6 0 -16 -5 -23 -12z m38 -44 c0 -24 -4 -34 -12 -31 -12 3 -19 43 -11 60 10 19 23 3 23 -29z"/> <path d="M2900 1643 c-30 -11 -39 -24 -31 -46 9 -25 56 -38 84 -25 27 14 22 57 -9 68 -14 6 -26 10 -27 9 -1 0 -9 -3 -17 -6z m55 -38 c0 -12 -40 -19 -61 -11 -9 3 -12 11 -9 16 8 14 70 9 70 -5z"/> <path d="M2692 1628 c-17 -17 -15 -28 6 -44 21 -16 78 -18 87 -3 4 5 4 21 1 35 -5 20 -12 24 -44 24 -21 0 -43 -5 -50 -12z m78 -23 c0 -16 -55 -22 -64 -6 -8 13 5 21 36 21 18 0 28 -5 28 -15z"/> <path d="M2800 1551 c-14 -27 -13 -54 4 -77 19 -25 47 -10 58 31 14 53 -37 92 -62 46z m40 -36 c0 -19 -4 -35 -10 -35 -5 0 -10 16 -10 35 0 19 5 35 10 35 6 0 10 -16 10 -35z"/> <path d="M2742 868 c-24 -31 -23 -55 3 -72 14 -9 25 -12 25 -6 0 5 4 10 9 10 4 0 6 -10 4 -23 -5 -26 -43 -32 -43 -7 0 38 -41 51 -71 24 -16 -15 -17 -19 -3 -39 10 -16 21 -21 39 -18 20 4 23 2 19 -14 -7 -24 22 -55 45 -51 10 2 18 17 21 43 3 24 8 35 13 28 9 -14 37 -7 54 15 10 13 10 19 -4 34 -9 10 -26 18 -37 18 -16 0 -22 7 -24 27 -3 38 -30 55 -50 31z m28 -33 c0 -14 -4 -25 -10 -25 -5 0 -10 11 -10 25 0 14 5 25 10 25 6 0 10 -11 10 -25z m-50 -60 c0 -8 -9 -15 -20 -15 -11 0 -20 7 -20 15 0 8 9 15 20 15 11 0 20 -7 20 -15z m125 0 c0 -5 -10 -11 -22 -13 -16 -2 -23 2 -23 13 0 11 7 15 23 13 12 -2 22 -7 22 -13z m-75 -60 c0 -14 -4 -25 -10 -25 -5 0 -10 11 -10 25 0 14 5 25 10 25 6 0 10 -11 10 -25z"/> <path d="M266 795 c-30 -32 -31 -38 -11 -58 13 -13 13 -16 0 -27 -21 -17 -19 -33 8 -58 28 -26 31 -27 53 -5 15 15 18 15 28 1 13 -18 44 -10 66 17 11 13 11 21 2 36 -9 14 -9 25 0 43 8 20 8 29 -2 41 -25 30 -47 36 -65 19 -15 -15 -17 -15 -35 1 -18 16 -20 16 -44 -10z m29 -35 c-12 -14 -22 -17 -29 -10 -6 6 -3 16 9 30 12 14 22 17 29 10 6 -6 3 -16 -9 -30z m99 -10 c-13 -13 -49 24 -39 40 5 9 14 6 28 -9 15 -14 18 -24 11 -31z m-40 -49 l-23 -25 -26 24 -25 23 28 23 27 24 21 -23 22 -22 -24 -24z m-58 -15 c15 -15 19 -36 7 -36 -10 0 -43 32 -43 42 0 13 20 9 36 -6z m104 -1 c0 -19 -36 -39 -45 -24 -4 6 1 17 11 24 24 18 34 19 34 0z"/> <path d="M657 673 c-4 -3 -7 -21 -7 -39 0 -31 21 -51 41 -38 5 3 9 -7 9 -22 0 -15 -3 -24 -6 -21 -12 12 -42 -12 -46 -37 -7 -34 25 -65 47 -46 8 7 15 27 15 44 0 28 3 31 31 31 39 0 59 26 39 50 -9 11 -24 15 -42 13 -25 -4 -28 -2 -26 22 1 14 -1 31 -6 38 -8 13 -38 16 -49 5z m33 -33 c0 -16 -4 -30 -10 -30 -5 0 -10 14 -10 30 0 17 5 30 10 30 6 0 10 -13 10 -30z m80 -65 c0 -16 -45 -21 -54 -6 -8 12 4 21 31 21 14 0 23 -6 23 -15z m-80 -65 c0 -16 -4 -30 -10 -30 -5 0 -10 14 -10 30 0 17 5 30 10 30 6 0 10 -13 10 -30z"/> <path d="M2210 615 c-25 -30 16 -70 58 -54 48 18 35 69 -18 69 -15 0 -33 -7 -40 -15z m70 -20 c0 -10 -10 -15 -30 -15 -29 0 -38 9 -23 23 13 13 53 7 53 -8z"/> <path d="M2357 612 c-22 -24 -5 -52 31 -52 32 0 52 16 52 41 0 32 -57 40 -83 11z m63 -17 c0 -16 -45 -21 -54 -6 -8 12 4 21 31 21 14 0 23 -6 23 -15z"/> <path d="M2499 614 c-30 -36 35 -70 75 -39 19 14 19 15 1 35 -22 24 -58 26 -76 4z m62 -19 c0 -5 -12 -11 -26 -13 -18 -2 -25 1 -25 13 0 12 7 15 25 13 14 -2 26 -7 26 -13z"/> <path d="M584 593 c-17 -18 -18 -25 -2 -41 17 -17 53 -15 69 4 29 35 -34 70 -67 37z m57 -18 c0 -5 -12 -11 -26 -13 -18 -2 -25 1 -25 13 0 12 7 15 25 13 14 -2 26 -7 26 -13z"/> </g> </svg> 