 <svg  version="1.0" xmlns="http://www.w3.org/2000/svg"  width="711.000000pt" height="606.000000pt" viewBox="0 0 711.000000 606.000000"  preserveAspectRatio="xMidYMid meet">  <g transform="translate(0.000000,606.000000) scale(0.100000,-0.100000)" fill="#ffffff" stroke="none"> <path d="M2397 5330 l-1547 -5 0 -1554 c0 -855 1 -1556 3 -1558 3 -3 616 -6 705 -3 17 0 17 216 0 222 -7 2 -123 1 -258 -2 -135 -4 -248 -5 -252 -3 -5 2 -8 525 -8 1163 0 917 3 1159 13 1163 6 2 39 1 72 -3 33 -3 632 -8 1332 -9 l1272 -3 5 24 c21 103 18 126 -19 118 -5 -1 -608 -2 -1340 -2 l-1330 0 0 141 0 142 1373 -1 c755 0 1392 -3 1417 -7 l44 -6 25 56 c13 31 38 65 55 78 17 12 31 28 31 35 0 12 -26 26 -38 22 -4 -2 -703 -5 -1555 -8z"/> <path d="M4315 5190 c-3 -11 -3 -29 0 -41 12 -37 -20 -59 -87 -59 -43 0 -60 4 -64 15 -9 23 -55 18 -89 -9 -28 -23 -29 -26 -17 -58 6 -19 12 -40 12 -47 0 -11 -36 -64 -71 -105 -5 -5 -19 -2 -34 8 -34 22 -52 15 -70 -29 -20 -45 -19 -64 3 -72 42 -15 53 -34 46 -87 -9 -67 -15 -77 -55 -90 -31 -10 -34 -14 -31 -46 2 -19 10 -45 18 -58 13 -19 21 -22 45 -17 32 7 59 -7 59 -32 0 -8 9 -26 20 -40 11 -14 20 -32 20 -39 0 -8 -9 -22 -20 -31 -29 -25 -25 -57 11 -87 37 -31 55 -33 71 -6 18 28 37 25 101 -17 50 -33 54 -38 46 -60 -16 -42 -10 -51 41 -68 56 -19 70 -14 70 20 0 40 25 55 95 55 l63 0 16 -41 c17 -43 24 -44 86 -15 26 12 31 39 17 82 -6 18 0 26 38 48 25 15 45 31 45 35 0 19 41 18 65 -1 33 -26 54 -20 83 22 l23 35 -30 27 c-36 32 -37 36 -12 91 10 23 21 50 25 60 5 15 13 18 44 13 49 -8 62 2 69 52 7 52 -8 72 -53 72 -40 0 -53 20 -61 94 -5 51 -5 52 28 66 28 12 34 20 32 43 -1 15 -11 41 -23 57 -21 29 -22 29 -50 15 -42 -22 -52 -19 -98 26 -43 42 -55 82 -27 93 19 7 20 56 1 56 -8 0 -21 6 -29 14 -30 30 -70 23 -84 -14 -13 -36 -35 -38 -108 -12 -47 17 -50 20 -55 57 l-5 40 -57 3 c-49 3 -57 0 -63 -18z m160 -229 c3 -5 20 -13 37 -16 46 -10 121 -70 154 -123 51 -80 64 -163 40 -242 -39 -125 -123 -202 -252 -231 -46 -10 -60 -9 -125 10 -63 20 -80 30 -133 84 -96 97 -120 202 -74 322 42 109 176 203 295 204 28 1 54 -3 58 -8z"/> <path d="M3294 5091 c-2 -2 -4 -37 -4 -78 l0 -73 75 0 75 0 0 75 c0 41 -3 75 -7 75 -64 4 -136 4 -139 1z"/> <path d="M1144 5077 c-3 -8 -4 -41 -2 -73 l3 -59 80 0 80 0 0 70 0 70 -78 3 c-59 2 -79 0 -83 -11z"/> <path d="M3534 5077 c-3 -8 -4 -41 -2 -73 l3 -59 80 0 80 0 0 70 0 70 -78 3 c-59 2 -79 0 -83 -11z"/> <path d="M1299 4632 c-5 -13 -9 -27 -9 -32 0 -20 39 -26 130 -20 90 5 95 6 98 29 2 13 -1 28 -6 33 -6 6 -54 11 -107 12 -94 2 -97 1 -106 -22z"/> <path d="M1525 4541 l-90 -6 -3 -33 c-2 -20 2 -34 10 -37 7 -2 53 -1 102 3 69 5 91 11 100 25 8 12 8 22 0 34 -13 21 -9 20 -119 14z"/> <path d="M1694 4529 c-18 -20 -18 -24 2 -43 11 -12 36 -16 94 -16 64 0 82 4 101 20 l24 21 -22 15 c-32 23 -179 25 -199 3z"/> <path d="M1944 4537 c-17 -10 -18 -39 -2 -55 16 -16 170 -16 186 0 15 15 15 45 0 54 -16 10 -166 11 -184 1z"/> <path d="M2177 4523 c-19 -42 4 -53 109 -53 92 0 94 0 100 26 10 41 -8 49 -108 49 -84 0 -91 -2 -101 -22z"/> <path d="M2448 4533 c-5 -7 -8 -22 -6 -35 3 -21 10 -24 73 -29 39 -4 121 -7 183 -8 109 -1 113 0 123 23 8 17 8 29 1 42 -10 17 -25 19 -187 19 -125 0 -180 -4 -187 -12z"/> <path d="M5322 4538 c-6 -6 -12 -30 -12 -53 0 -45 -13 -65 -44 -65 -12 0 -46 -9 -76 -19 -55 -19 -55 -19 -77 2 -13 11 -23 25 -23 31 0 5 -9 20 -21 32 l-21 22 -43 -29 c-24 -16 -47 -29 -53 -29 -18 0 -22 -32 -8 -58 39 -70 40 -65 -34 -141 l-68 -70 -48 25 -47 25 -23 -28 c-13 -15 -23 -33 -24 -39 0 -6 -7 -17 -15 -24 -27 -23 -17 -47 30 -70 51 -25 59 -42 44 -90 -6 -19 -14 -55 -18 -80 -6 -43 -8 -45 -41 -48 -79 -6 -80 -7 -80 -70 0 -76 12 -90 79 -94 l53 -3 20 -55 c12 -30 27 -62 34 -71 23 -26 16 -46 -26 -79 -22 -17 -40 -36 -40 -42 0 -22 72 -108 90 -108 11 0 31 11 46 25 30 28 62 33 70 10 3 -8 30 -30 60 -50 58 -39 67 -63 39 -101 -18 -24 -19 -54 -2 -54 6 0 25 -7 40 -15 75 -39 113 -28 126 38 l7 32 84 0 c101 1 120 -6 120 -43 0 -34 25 -72 48 -72 27 1 126 38 130 49 2 5 -4 24 -13 41 -22 42 -14 57 42 82 27 12 62 32 79 45 l31 23 37 -35 c21 -19 43 -35 50 -35 8 0 35 26 61 57 l47 58 -36 31 c-20 17 -36 35 -36 40 0 4 17 43 38 87 l37 78 57 -6 57 -6 16 56 c27 90 20 102 -66 120 -26 5 -27 8 -34 94 -4 49 -4 94 -1 100 4 6 22 13 41 17 57 10 61 33 20 128 -15 35 -18 38 -48 32 -97 -20 -92 -21 -120 26 -14 23 -37 54 -51 67 -14 14 -26 28 -26 32 0 4 14 23 30 41 17 18 30 38 30 45 0 6 -17 25 -37 40 -21 15 -44 34 -51 41 -25 23 -49 13 -76 -32 -26 -44 -27 -45 -59 -34 -17 6 -41 17 -52 25 -11 7 -32 13 -47 13 -36 0 -52 30 -43 80 8 46 -3 54 -85 64 -38 5 -59 3 -68 -6z m109 -190 c61 -45 112 -67 175 -74 61 -8 79 -22 128 -98 18 -29 62 -80 96 -113 l63 -61 -15 -38 c-19 -51 -14 -132 13 -194 25 -58 21 -86 -20 -132 -43 -51 -78 -110 -92 -159 -13 -47 -49 -89 -78 -89 -29 0 -96 -37 -146 -80 -69 -60 -78 -63 -122 -44 -69 29 -146 36 -198 19 -25 -9 -55 -13 -67 -9 -12 4 -50 34 -85 67 -34 33 -88 74 -119 91 -56 30 -58 33 -70 86 -17 76 -34 117 -72 172 -40 58 -40 86 -2 140 29 41 31 49 32 141 l1 98 41 31 c71 55 107 91 143 147 34 53 34 53 76 47 59 -9 145 10 192 42 39 26 64 40 76 41 3 1 26 -14 50 -31z"/> <path d="M5241 4221 c-123 -36 -243 -151 -292 -280 -18 -47 -20 -70 -16 -143 6 -99 25 -149 87 -233 97 -131 292 -196 448 -150 67 20 169 90 205 140 15 22 42 69 60 105 29 60 32 73 31 160 -1 87 -3 100 -33 159 -52 102 -164 209 -249 239 -63 22 -172 23 -241 3z m240 -111 c56 -29 102 -73 146 -138 38 -57 38 -57 38 -159 0 -76 -4 -106 -16 -120 -8 -10 -21 -31 -29 -47 -20 -39 -94 -102 -148 -126 -63 -28 -182 -28 -248 1 -62 28 -145 111 -173 173 -28 65 -29 175 -1 238 40 91 144 181 229 199 55 12 159 1 202 -21z"/> <path d="M1547 4423 c-12 -11 -8 -60 6 -70 8 -7 43 -7 100 0 72 8 90 13 99 30 18 34 -13 47 -112 47 -48 0 -90 -3 -93 -7z"/> <path d="M1794 4416 c-3 -8 -4 -23 -2 -33 3 -15 17 -19 96 -23 101 -5 116 0 110 42 -3 22 -7 23 -101 26 -78 2 -98 0 -103 -12z"/> <path d="M2044 4416 c-3 -8 -4 -23 -2 -33 3 -16 15 -18 98 -18 l95 0 0 30 0 30 -93 3 c-74 2 -93 0 -98 -12z"/> <path d="M2293 4424 c-7 -3 -13 -16 -13 -30 0 -27 11 -31 117 -37 79 -5 97 4 91 45 -3 22 -7 23 -93 25 -49 1 -96 -1 -102 -3z"/> <path d="M2664 4307 c-18 -10 -18 -53 0 -60 11 -4 308 -11 354 -8 9 1 12 13 10 39 l-3 37 -173 0 c-95 0 -180 -4 -188 -8z"/> <path d="M1655 4294 c-18 -19 -19 -26 -3 -42 18 -18 179 -16 204 3 19 15 19 15 -3 33 -29 25 -174 30 -198 6z"/> <path d="M1908 4287 c-18 -34 7 -47 87 -47 85 0 105 6 105 30 0 31 -23 39 -104 37 -64 -2 -80 -5 -88 -20z"/> <path d="M2197 4303 c-54 -5 -73 -27 -42 -49 19 -14 130 -19 173 -8 27 8 29 39 3 54 -19 10 -37 10 -134 3z"/> <path d="M2394 4296 c-3 -8 -4 -23 -2 -33 3 -16 15 -18 103 -18 l100 0 0 30 0 30 -98 3 c-78 2 -98 0 -103 -12z"/> <path d="M1542 4158 l3 -33 87 -3 c90 -3 128 7 128 33 0 25 -36 35 -130 35 l-91 0 3 -32z"/> <path d="M1803 4184 c-7 -3 -13 -16 -13 -30 0 -30 21 -36 125 -32 l80 3 0 30 0 30 -90 2 c-49 1 -96 -1 -102 -3z"/> <path d="M2039 4168 c-18 -34 11 -48 102 -48 57 0 82 4 93 16 20 19 20 19 0 38 -12 12 -36 16 -99 16 -76 0 -85 -2 -96 -22z"/> <path d="M2288 4179 c-25 -14 -22 -38 5 -48 37 -14 175 -17 188 -4 7 7 9 23 5 37 -6 25 -8 26 -94 26 -48 0 -95 -5 -104 -11z"/> <path d="M2544 4176 c-3 -8 -4 -25 -2 -37 3 -22 4 -22 188 -22 160 0 185 2 195 17 7 11 7 21 -1 34 -10 15 -32 17 -193 20 -151 2 -182 0 -187 -12z"/> <path d="M1438 4069 c-5 -3 -8 -19 -6 -35 l3 -29 95 -6 c103 -7 120 -2 120 38 0 13 -6 25 -12 28 -22 7 -189 10 -200 4z"/> <path d="M1692 4058 c-16 -16 -15 -33 4 -52 11 -12 36 -16 95 -16 66 0 82 3 99 20 25 25 25 37 1 50 -28 14 -184 13 -199 -2z"/> <path d="M1937 4063 c-11 -11 -8 -48 5 -61 7 -7 44 -12 95 -12 78 0 83 1 100 26 16 25 16 27 -2 40 -20 15 -185 20 -198 7z"/> <path d="M2175 4051 c-3 -11 -1 -30 5 -41 10 -19 19 -20 108 -18 l97 3 0 35 0 35 -102 3 c-94 2 -102 1 -108 -17z"/> <path d="M1305 3953 c-20 -20 -19 -51 3 -60 9 -5 61 -7 115 -5 l98 3 -3 27 c-3 24 -8 28 -53 33 -123 17 -146 17 -160 2z"/> <path d="M4136 3881 c-4 -6 -4 -20 -1 -33 8 -32 -12 -53 -69 -72 -53 -17 -71 -12 -89 25 -17 32 -37 34 -81 8 -38 -22 -50 -62 -21 -73 28 -10 15 -43 -36 -96 -47 -48 -51 -51 -68 -36 -29 27 -56 20 -74 -19 -26 -54 -22 -74 13 -81 17 -4 32 -15 36 -26 11 -35 -8 -41 -92 -28 -130 18 -141 19 -153 7 -17 -17 -13 -67 5 -74 9 -3 58 -1 108 6 100 13 126 9 126 -20 0 -13 -12 -22 -40 -30 -54 -16 -61 -27 -52 -80 8 -43 8 -44 45 -41 36 3 37 2 62 -54 31 -71 31 -88 0 -108 -16 -11 -22 -22 -18 -34 7 -21 63 -82 75 -82 5 0 19 11 32 25 13 14 26 25 29 25 3 0 19 -12 34 -26 15 -14 39 -30 52 -35 21 -8 23 -14 18 -48 -6 -49 1 -60 48 -71 46 -10 72 1 77 32 3 21 9 23 75 26 l71 3 12 -35 c12 -39 33 -51 60 -36 10 6 28 10 40 10 26 0 36 24 22 55 -11 25 -3 35 65 83 40 28 44 28 78 -3 15 -15 32 -24 38 -22 6 2 26 22 44 44 l34 41 -33 30 -32 31 23 48 c38 81 35 78 84 75 l44 -3 11 42 c14 56 3 75 -48 84 -22 4 -40 7 -40 8 -1 1 -3 32 -6 69 -5 62 -4 67 18 78 48 26 58 40 46 68 -18 42 -46 64 -68 52 -34 -18 -58 -11 -79 24 -12 19 -28 37 -36 40 -20 7 -19 41 3 78 l17 30 -35 29 c-44 37 -66 37 -85 -1 -18 -34 -27 -36 -101 -14 -56 16 -65 29 -61 84 2 24 -1 25 -60 28 -34 2 -64 -2 -67 -7z m156 -252 c73 -27 141 -86 175 -153 36 -70 39 -199 5 -263 -52 -99 -127 -157 -221 -172 -117 -19 -208 12 -289 98 -53 56 -75 114 -75 201 1 145 69 238 213 292 62 23 122 22 192 -3z"/> <path d="M1306 3795 c-19 -19 -20 -29 -6 -55 9 -16 20 -18 92 -13 122 6 128 8 128 43 l0 30 -84 0 c-46 0 -91 3 -99 6 -8 3 -22 -2 -31 -11z"/> <path d="M1442 3681 c-8 -4 -12 -21 -10 -37 l3 -29 100 4 c103 4 117 10 113 46 -3 18 -12 20 -98 23 -52 1 -101 -2 -108 -7z"/> <path d="M1691 3676 c-9 -11 -10 -20 -1 -35 10 -19 20 -21 99 -21 76 0 90 3 107 21 18 20 18 21 -1 35 -27 20 -188 20 -204 0z"/> <path d="M1930 3675 c-10 -13 -10 -19 5 -35 15 -17 31 -20 100 -20 70 0 85 3 101 21 18 20 18 21 -1 35 -28 20 -188 20 -205 -1z"/> <path d="M2175 3670 c-13 -40 10 -50 111 -50 91 0 94 1 100 24 3 14 3 30 -1 35 -4 7 -46 11 -105 11 -91 0 -99 -2 -105 -20z"/> <path d="M2444 3676 c-3 -8 -4 -23 -2 -33 4 -21 75 -29 260 -32 98 -1 108 1 118 19 6 12 8 30 5 40 -6 19 -16 20 -191 20 -152 0 -186 -3 -190 -14z"/> <path d="M2371 3571 c-61 -5 -76 -10 -88 -28 -13 -19 -12 -23 6 -33 12 -6 58 -10 109 -8 82 3 87 4 90 26 4 25 -14 53 -32 50 -6 -1 -44 -4 -85 -7z"/> <path d="M1546 3554 c-3 -9 -6 -24 -6 -35 0 -17 8 -19 98 -19 115 0 145 15 106 54 -23 23 -189 23 -198 0z"/> <path d="M1794 3556 c-3 -8 -4 -23 -2 -33 3 -16 15 -18 103 -18 l100 0 0 30 0 30 -98 3 c-78 2 -98 0 -103 -12z"/> <path d="M2041 3548 c-15 -41 3 -49 103 -46 l91 3 0 30 0 30 -93 3 c-88 3 -93 2 -101 -20z"/> <path d="M3076 3449 c-18 -14 -19 -20 -8 -43 l12 -26 180 0 181 0 -3 41 -3 42 -169 1 c-143 1 -173 -2 -190 -15z"/> <path d="M2398 3449 c-5 -3 -8 -19 -6 -35 l3 -29 100 0 100 0 0 35 0 35 -93 0 c-52 0 -98 -3 -104 -6z"/> <path d="M2650 3445 c-10 -12 -10 -21 -2 -40 l12 -25 174 0 c160 0 176 2 185 18 6 10 7 28 4 40 -5 22 -9 22 -183 22 -147 0 -180 -3 -190 -15z"/> <path d="M1646 3434 c-13 -33 13 -44 103 -44 98 0 136 15 112 44 -20 24 -206 24 -215 0z"/> <path d="M1906 3434 c-12 -32 13 -44 95 -44 58 0 82 4 94 16 30 31 2 44 -95 44 -72 0 -89 -3 -94 -16z"/> <path d="M2143 3434 c-10 -28 20 -41 105 -47 65 -4 86 -2 97 10 38 37 7 53 -102 53 -76 0 -95 -3 -100 -16z"/> <path d="M1551 3337 c-15 -15 -14 -52 2 -64 19 -16 195 -4 201 13 8 22 -4 44 -28 49 -52 10 -165 12 -175 2z"/> <path d="M1800 3325 c-6 -8 -10 -22 -8 -32 3 -15 17 -19 96 -23 103 -5 119 1 108 45 -6 24 -9 25 -95 25 -65 0 -92 -4 -101 -15z"/> <path d="M2047 3333 c-4 -3 -7 -18 -7 -33 0 -27 0 -27 93 -33 95 -5 117 1 117 32 0 33 -22 41 -110 41 -48 0 -90 -3 -93 -7z"/> <path d="M1434 3216 c-3 -8 -4 -25 -2 -38 3 -21 9 -24 95 -32 50 -5 99 -6 107 -3 17 7 21 44 8 63 -4 6 -51 14 -105 18 -80 5 -98 4 -103 -8z"/> <path d="M2243 3223 c-57 -4 -80 -26 -68 -63 6 -18 16 -20 111 -20 l104 0 0 45 0 45 -47 -2 c-27 -1 -72 -3 -100 -5z"/> <path d="M1688 3195 c-20 -43 2 -55 103 -55 66 0 91 4 103 16 20 20 20 27 -2 47 -14 13 -39 17 -106 17 -82 0 -87 -1 -98 -25z"/> <path d="M1940 3206 c-6 -8 -10 -25 -8 -38 3 -22 8 -23 83 -26 102 -4 125 2 125 31 0 39 -19 47 -106 47 -59 0 -85 -4 -94 -14z"/> <path d="M1295 3090 c-3 -10 -1 -28 5 -40 10 -18 19 -20 113 -17 l102 2 3 31 c4 39 -10 44 -130 44 -77 0 -87 -2 -93 -20z"/> <path d="M1303 2942 c-15 -15 -15 -18 -7 -49 6 -21 12 -23 68 -22 33 0 81 4 106 7 40 6 45 10 48 35 4 34 0 35 -112 39 -64 2 -93 -1 -103 -10z"/> <path d="M1525 2841 l-90 -6 -3 -37 c-2 -21 0 -38 5 -39 56 -5 201 -3 211 4 19 15 15 65 -7 77 -11 5 -21 9 -23 8 -2 -1 -43 -4 -93 -7z"/> <path d="M1759 2668 c-55 -33 -53 -13 -56 -717 -2 -638 -2 -656 18 -687 10 -18 27 -35 36 -38 8 -4 952 -6 2096 -6 l2081 0 28 27 28 27 0 677 0 677 -31 26 c-17 14 -40 26 -52 26 -12 0 -944 1 -2071 2 -1912 3 -2051 2 -2077 -14z m211 -98 c16 -8 18 -20 15 -72 -1 -35 -3 -67 -4 -71 -1 -4 -36 -7 -78 -5 l-78 3 0 70 0 70 60 6 c33 3 61 6 63 7 2 1 12 -2 22 -8z m2510 -77 l0 -74 -77 3 -78 3 -3 72 -3 72 63 3 c100 5 98 7 98 -79z m191 77 l49 0 0 -75 0 -75 -75 0 -75 0 0 74 c0 74 7 90 38 80 8 -2 36 -4 63 -4z m447 -74 l-3 -71 -79 0 -79 0 0 70 0 70 59 5 c105 9 105 9 102 -74z m247 60 c22 -22 23 -29 14 -53 -12 -32 -26 -43 -54 -43 -51 1 -76 53 -44 93 26 34 53 34 84 3z m175 4 c11 -11 20 -29 20 -40 0 -11 -9 -29 -20 -40 -53 -53 -126 15 -79 73 24 32 52 34 79 7z m188 -7 c6 -9 12 -25 12 -35 0 -24 -35 -58 -60 -58 -26 0 -60 34 -60 60 0 11 9 29 21 41 24 24 65 20 87 -8z m-3460 -55 l-3 -73 -77 -3 -78 -3 0 76 0 75 80 0 81 0 -3 -72z m197 -3 l0 -70 -75 0 -75 0 -1 65 c-1 36 0 69 3 73 3 4 37 7 76 5 l72 -3 0 -70z m200 0 l0 -70 -75 0 -75 0 -3 73 -3 73 78 -3 78 -3 0 -70z m203 3 l-3 -73 -72 -3 -73 -3 0 76 0 75 75 0 76 0 -3 -72z m202 -3 l0 -76 -72 3 -73 3 -3 59 c-4 85 -4 86 78 86 l70 0 0 -75z m198 3 l-3 -73 -70 0 -70 0 -3 73 -3 72 76 0 76 0 -3 -72z m202 -3 l0 -75 -75 0 -75 0 0 75 0 75 75 0 75 0 0 -75z m205 0 l0 -70 -75 0 -75 0 -3 59 c-5 87 -4 87 80 84 l73 -3 0 -70z m200 0 l0 -70 -75 0 -75 0 -3 59 c-5 87 -4 87 80 84 l73 -3 0 -70z m199 0 l-1 -70 -74 0 -74 0 -3 73 -3 73 78 -3 78 -3 -1 -70z m200 0 l-1 -70 -74 0 -74 0 -1 65 c-1 36 0 69 3 73 3 4 37 7 76 5 l72 -3 -1 -70z m636 0 l0 -76 -72 3 -73 3 -3 73 -3 72 76 0 75 0 0 -75z m955 -1 c0 -35 -3 -39 -25 -39 -31 0 -37 25 -14 60 23 35 39 26 39 -21z m-3932 -154 l37 0 0 -70 c0 -77 2 -75 -72 -84 -64 -7 -78 8 -78 84 0 64 15 85 55 75 11 -3 37 -5 58 -5z m210 0 c4 0 7 -33 5 -72 l-3 -73 -56 -3 c-67 -3 -75 4 -81 76 -6 66 10 81 80 76 26 -2 51 -3 55 -4z m185 -74 l-3 -71 -56 -3 c-71 -4 -81 7 -77 85 l3 58 55 5 c81 8 81 8 78 -74z m180 0 l-3 -71 -56 -3 c-71 -4 -81 7 -77 85 l3 58 55 5 c81 8 81 8 78 -74z m180 0 l-3 -71 -62 -3 c-52 -2 -62 0 -67 15 -10 32 -10 113 0 123 9 9 99 18 122 11 9 -2 12 -23 10 -75z m1773 74 c15 -9 19 -21 19 -68 0 -88 2 -86 -157 -83 -160 3 -162 4 -160 89 l2 57 135 5 c74 3 136 7 138 8 2 1 12 -3 23 -8z m247 -6 c15 -4 17 -130 1 -140 -21 -13 -123 -14 -131 -1 -13 21 -9 145 5 150 12 5 101 -1 125 -9z m200 -73 l-3 -76 -65 3 c-36 2 -67 6 -70 9 -3 2 -5 35 -5 71 l0 67 60 5 c88 8 86 9 83 -79z m183 79 c16 -9 19 -22 19 -75 0 -37 -5 -67 -11 -71 -20 -12 -120 -10 -130 2 -6 7 -9 41 -7 76 l3 63 50 6 c28 3 51 7 53 7 2 1 12 -3 23 -8z m213 -3 c16 -12 17 -21 10 -78 l-9 -64 -55 -6 c-30 -3 -60 -4 -66 -2 -16 6 -26 133 -13 150 15 17 110 17 133 0z m190 0 c15 -11 16 -21 9 -77 l-8 -65 -66 -3 -66 -3 -6 68 c-3 40 -1 73 5 81 14 16 109 16 132 -1z m177 3 c16 -9 19 -21 18 -63 -3 -81 -9 -88 -82 -85 l-62 3 -3 69 c-2 49 1 72 10 77 18 12 96 11 119 -1z m203 -7 c3 -10 2 -47 -2 -83 l-7 -65 -65 3 c-36 2 -68 9 -72 15 -13 21 -9 135 5 140 6 3 40 6 74 6 50 1 63 -2 67 -16z m-3006 -65 l-3 -73 -62 -3 c-58 -3 -63 -1 -67 20 -12 57 -13 107 -3 117 6 6 40 11 74 11 l64 0 -3 -72z m177 -3 l0 -70 -62 -3 c-69 -3 -66 -7 -76 85 -6 55 5 64 78 61 l60 -3 0 -70z m180 0 l0 -70 -65 0 -65 0 -7 55 c-11 87 -8 91 70 88 l67 -3 0 -70z m180 0 l0 -70 -65 0 -65 0 -7 55 c-11 87 -8 91 70 88 l67 -3 0 -70z m180 0 l0 -70 -65 0 -65 0 -7 59 c-10 79 -2 88 76 84 l61 -3 0 -70z m180 0 l0 -70 -65 0 -65 0 -6 60 c-10 84 -8 86 70 83 l66 -3 0 -70z m180 0 l0 -70 -60 -3 c-70 -4 -85 9 -85 74 0 72 4 75 79 72 l66 -3 0 -70z m180 0 l0 -70 -60 -3 c-70 -4 -85 9 -85 74 0 72 4 75 79 72 l66 -3 0 -70z m-2092 -121 c14 -4 17 -17 17 -68 l0 -63 -102 -6 c-65 -3 -108 -2 -115 5 -13 11 -18 94 -7 122 5 12 24 15 97 15 51 0 100 -3 110 -5z m195 -6 c18 -18 15 -103 -4 -122 -21 -21 -97 -21 -118 0 -19 19 -22 104 -4 122 7 7 35 12 63 12 28 0 56 -5 63 -12z m176 6 c20 -8 23 -113 4 -132 -13 -13 -85 -16 -112 -6 -20 8 -23 129 -3 137 18 8 93 8 111 1z m180 0 c20 -8 23 -113 4 -132 -13 -13 -85 -16 -112 -6 -20 8 -23 129 -3 137 18 8 93 8 111 1z m194 -63 c3 -73 -2 -81 -63 -81 -61 0 -70 10 -67 76 1 32 8 62 15 66 6 5 35 7 62 6 l50 -3 3 -64z m181 52 c10 -19 7 -105 -4 -123 -9 -14 -98 -13 -113 2 -16 16 -16 110 0 126 19 19 106 15 117 -5z m175 11 c21 -8 23 -116 2 -133 -8 -7 -36 -11 -63 -9 l-48 3 -3 59 c-2 32 -1 65 2 72 6 14 80 20 110 8z m184 0 c20 -6 22 -13 22 -65 0 -69 -14 -82 -88 -77 l-47 3 -3 59 c-2 32 -1 65 2 72 6 15 72 19 114 8z m186 0 c12 -5 16 -21 16 -69 0 -57 -2 -63 -22 -69 -38 -10 -93 -7 -106 6 -16 16 -16 125 1 131 18 8 93 8 111 1z m190 -9 c10 -11 14 -30 11 -66 -2 -28 -6 -53 -9 -56 -12 -12 -95 -14 -115 -4 -17 10 -21 21 -21 64 0 29 5 58 12 65 17 17 103 15 122 -3z m184 3 c18 -18 15 -103 -4 -122 -20 -21 -97 -21 -118 -1 -16 17 -19 89 -5 118 7 13 22 17 62 17 29 0 58 -5 65 -12z m176 6 c20 -8 23 -113 4 -132 -13 -13 -85 -16 -112 -6 -20 8 -23 129 -3 137 18 8 93 8 111 1z m180 0 c12 -5 16 -21 16 -69 0 -70 -5 -75 -70 -75 -22 0 -45 7 -54 16 -19 19 -22 104 -4 122 13 13 85 16 112 6z m231 -4 c6 -5 10 -68 10 -162 l0 -153 -50 0 -50 0 -5 82 c-3 45 -7 83 -10 85 -3 2 -17 9 -32 16 -26 11 -28 16 -28 65 0 29 4 57 10 63 12 12 141 16 155 4z m239 4 c12 -5 16 -21 16 -75 0 -79 -5 -83 -96 -77 l-49 3 -3 64 c-2 35 -1 70 2 77 6 15 99 20 130 8z m201 -74 l0 -75 -49 -3 c-88 -6 -96 0 -96 67 0 90 2 92 79 89 l66 -3 0 -75z m189 74 c12 -5 16 -21 16 -70 0 -73 -11 -84 -82 -84 -65 0 -72 8 -69 81 1 35 4 66 7 71 6 9 105 11 128 2z m200 0 c12 -5 16 -21 16 -70 0 -72 -7 -78 -91 -72 l-44 3 -3 59 c-2 32 -1 65 2 72 6 15 89 20 120 8z m190 0 c12 -5 16 -21 16 -69 0 -71 -3 -73 -90 -71 l-45 1 -3 59 c-2 32 -1 65 2 72 6 15 89 20 120 8z m183 -2 c19 -12 21 -121 3 -132 -22 -14 -104 -12 -118 2 -13 13 -17 120 -5 131 9 10 105 8 120 -1z m201 -64 l-3 -73 -58 -3 c-35 -2 -64 2 -73 9 -17 14 -19 110 -2 127 7 7 39 12 75 12 l64 0 -3 -72z m-3785 -118 c4 0 7 -30 5 -67 l-3 -67 -130 0 -130 -1 -3 58 c-2 32 2 64 7 71 7 9 44 11 128 9 65 -2 122 -3 126 -3z m175 1 c9 -1 12 -19 10 -68 l-3 -68 -58 -3 c-63 -3 -62 -4 -70 66 -8 67 21 85 121 73z m190 -4 c12 -8 17 -93 6 -121 -8 -20 -103 -23 -122 -4 -16 16 -15 103 1 120 15 14 95 18 115 5z m190 0 c17 -11 16 -111 -2 -126 -8 -7 -37 -11 -68 -9 l-53 3 -3 58 c-2 32 1 64 7 70 10 13 99 16 119 4z m192 -4 c7 -7 0 -117 -9 -126 -4 -4 -35 -7 -67 -5 l-59 3 0 65 0 65 45 6 c42 5 79 2 90 -8z m178 5 c12 -12 16 -95 6 -122 -8 -20 -113 -23 -132 -4 -13 13 -16 96 -4 115 4 6 25 13 47 16 22 2 47 4 56 5 8 1 20 -3 27 -10z m187 -63 l0 -70 -44 -3 c-83 -6 -91 0 -91 68 0 69 6 75 82 75 l53 0 0 -70z m185 55 c11 -17 13 -74 4 -108 -6 -21 -11 -23 -68 -20 l-61 3 -3 58 c-2 32 2 64 7 71 15 18 109 15 121 -4z m187 6 c10 -9 5 -118 -6 -129 -4 -4 -32 -7 -62 -5 l-54 3 -3 59 c-2 32 -1 64 2 71 5 13 110 14 123 1z m181 5 c9 -1 12 -19 10 -68 l-3 -68 -65 0 -65 0 -3 49 c-6 86 0 93 60 91 29 -2 59 -3 66 -4z m192 -11 c12 -18 13 -100 1 -118 -5 -9 -27 -12 -72 -10 l-64 3 -3 58 c-2 32 1 64 7 70 14 18 120 15 131 -3z m185 -55 l0 -70 -65 0 -65 0 -3 60 c-4 72 4 80 79 80 l54 0 0 -70z m180 0 l0 -70 -39 -3 c-71 -6 -83 2 -88 55 -7 72 8 90 74 89 l53 -1 0 -70z m997 57 c5 -5 8 -36 6 -68 l-3 -59 -58 -5 c-32 -3 -64 -2 -72 3 -19 10 -21 117 -3 135 13 13 115 9 130 -6z m566 -60 l3 -73 -73 3 -73 3 -3 44 c-5 73 3 89 46 94 20 2 51 4 67 3 l30 -1 3 -73z m-370 1 c3 -58 1 -63 -21 -68 -13 -4 -43 -5 -68 -3 l-44 3 -3 68 -3 68 68 -3 68 -3 3 -62z m180 47 c4 -12 5 -42 2 -68 l-5 -47 -65 0 -65 0 -3 54 c-5 78 -2 81 68 81 52 0 62 -3 68 -20z m-931 -57 c3 -7 -13 -31 -35 -55 -21 -24 -44 -53 -51 -65 -14 -27 -52 -30 -72 -7 -19 23 -17 90 3 110 30 31 147 43 155 17z m253 6 c29 -9 41 -20 55 -51 17 -39 17 -40 -6 -56 -13 -9 -25 -17 -26 -17 -1 0 -22 24 -47 53 -67 78 -60 96 24 71z m-82 -159 c4 -88 -5 -97 -89 -92 l-66 4 -6 64 c-9 94 -8 95 82 92 l76 -3 3 -65z m-2878 45 l135 0 3 -67 3 -67 -163 -3 c-90 -2 -171 0 -180 5 -14 6 -18 20 -18 62 0 65 19 91 59 78 14 -4 87 -8 161 -8z m2428 3 c16 -16 16 -123 0 -134 -7 -5 -92 -7 -188 -4 l-175 5 -3 53 c-4 76 7 86 88 80 53 -4 140 -1 251 10 8 1 20 -3 27 -10z m830 -11 c8 -7 12 -29 10 -66 l-3 -56 -60 -7 c-36 -3 -65 -2 -72 4 -20 16 -17 125 3 136 20 11 104 4 122 -11z m-2933 -10 c4 -13 5 -43 3 -68 l-3 -44 -52 -5 c-28 -3 -56 -4 -62 -2 -12 4 -15 124 -4 135 3 4 30 7 59 7 48 0 54 -3 59 -23z m199 1 c8 -33 7 -91 -3 -106 -5 -9 -27 -12 -72 -10 l-64 3 -3 44 c-6 84 0 91 72 91 58 0 64 -2 70 -22z m181 -1 c4 -13 5 -43 3 -68 l-3 -44 -67 -3 -68 -3 0 64 c0 35 3 67 7 70 3 4 32 7 64 7 53 0 59 -2 64 -23z m180 -47 l0 -65 -53 -3 c-68 -4 -82 8 -82 67 0 62 12 73 80 69 l55 -3 0 -65z m189 54 c3 -9 6 -33 6 -54 0 -65 -5 -70 -70 -70 -65 0 -70 5 -70 70 0 65 5 70 70 70 44 0 59 -4 64 -16z m185 2 c7 -8 11 -37 9 -68 l-3 -53 -65 0 -65 0 -3 54 c-2 29 -1 60 2 67 7 19 109 19 125 0z m191 -5 c12 -23 13 -91 1 -109 -5 -9 -26 -12 -67 -10 l-59 3 -7 49 c-10 72 1 86 67 86 43 0 56 -4 65 -19z m185 -4 c4 -13 5 -43 3 -68 l-3 -44 -44 -3 c-81 -6 -91 1 -91 61 0 29 5 58 12 65 7 7 36 12 65 12 47 0 53 -3 58 -23z m183 6 c8 -15 9 -56 3 -111 -1 -9 -18 -12 -63 -10 l-63 3 -3 44 c-6 81 1 91 63 91 42 0 56 -4 63 -17z m190 5 c7 -7 12 -35 12 -64 0 -60 -5 -64 -86 -64 l-54 0 0 63 c0 35 3 67 7 70 11 12 108 8 121 -5z m1435 0 c15 -8 17 -19 15 -66 l-3 -57 -65 0 -65 0 -3 54 c-2 29 -1 60 2 67 6 15 89 16 119 2z m190 -3 c11 -10 14 -28 10 -57 -8 -70 -7 -69 -75 -66 l-63 3 -3 53 c-2 31 2 60 9 68 16 19 103 19 122 -1z m197 -145 c4 -85 4 -161 2 -167 -3 -9 -27 -13 -72 -13 -58 0 -70 3 -75 18 -9 30 -2 296 8 310 7 9 30 12 71 10 l61 -3 5 -155z m-3890 -30 c80 0 84 -5 78 -96 l-3 -49 -95 -6 c-127 -7 -140 1 -140 81 0 49 4 61 21 74 16 10 28 12 46 5 13 -5 55 -9 93 -9z m2482 3 c26 -23 26 -138 1 -151 -19 -10 -127 -1 -139 11 -13 13 -3 111 12 128 9 10 30 17 50 17 20 0 38 3 41 6 9 9 15 7 35 -11z m246 8 c9 -5 12 -29 10 -82 l-3 -74 -60 -7 c-79 -9 -92 4 -88 91 1 34 5 66 8 71 7 12 115 13 133 1z m197 -14 c4 -13 5 -50 3 -82 l-3 -60 -64 -3 c-45 -2 -67 1 -72 10 -11 16 -11 119 -1 135 4 6 32 13 62 16 30 2 58 4 62 5 4 1 10 -8 13 -21z m203 -56 c2 -41 -2 -79 -7 -84 -13 -13 -122 -9 -136 4 -9 9 -8 136 2 152 2 4 35 7 71 5 l67 -3 3 -74z m-2873 46 c4 -13 5 -48 3 -78 l-3 -54 -58 -3 c-78 -4 -89 6 -83 77 6 67 21 81 88 81 41 0 48 -3 53 -23z m187 -46 c9 -81 2 -91 -68 -91 -69 0 -83 14 -77 77 8 68 25 85 87 81 l51 -3 7 -64z m178 49 c11 -20 14 -99 4 -124 -5 -12 -20 -16 -62 -16 -73 0 -94 17 -81 66 6 19 8 38 5 43 -3 4 1 17 9 28 20 29 110 31 125 3z m1112 -51 c5 -41 3 -68 -4 -76 -8 -10 -115 -13 -528 -13 -580 0 -530 -7 -530 76 0 86 -47 79 537 77 l518 -1 7 -63z m186 59 c5 -7 12 -37 14 -66 7 -70 -5 -82 -82 -82 -68 0 -76 10 -64 87 9 64 18 73 74 73 26 0 52 -6 58 -12z m179 4 c15 -9 27 -105 17 -134 -5 -16 -14 -19 -72 -16 l-67 3 -3 65 c-2 52 0 67 14 77 20 14 92 17 111 5z m191 -8 c9 -3 12 -23 10 -71 l-3 -68 -64 -3 c-75 -4 -81 2 -81 73 0 54 6 69 30 77 15 5 83 0 108 -8z m1080 6 c70 0 132 -4 138 -8 15 -9 26 -113 14 -132 -7 -12 -39 -15 -162 -16 -89 0 -158 3 -166 9 -9 7 -11 27 -6 71 7 66 19 90 41 81 8 -3 72 -5 141 -5z m318 -8 c7 -4 15 -34 19 -68 8 -76 -1 -86 -82 -82 l-58 3 -3 64 c-2 35 -1 70 2 77 6 15 102 20 122 6z m-1106 -227 c13 -14 21 -27 19 -29 -3 -3 -26 -2 -52 2 l-48 7 21 23 c26 28 31 28 60 -3z"/> </g> </svg> 