<svg xmlns="http://www.w3.org/2000/svg" viewBox="0 0 500 500"><g id="freepik--Window--inject-101"><rect x="98.3" y="73.8" width="301.05" height="204.45" style="fill:#17A2B8"></rect><rect x="98.3" y="73.8" width="301.05" height="204.45" style="fill:#fff;opacity:0.5"></rect><path d="M98.3,73.8V87.89h43.57V82.48a4.87,4.87,0,0,1,4.87-4.87h40.31a4.87,4.87,0,0,1,4.87,4.87v5.41H399.35V73.8Z" style="fill:#17A2B8"></path><path d="M110.86,80.84a3.24,3.24,0,1,1-3.24-3.23A3.24,3.24,0,0,1,110.86,80.84Z" style="fill:#fff;opacity:0.7000000000000001"></path><circle cx="117.33" cy="80.84" r="3.23" style="fill:#fff;opacity:0.7000000000000001"></circle><path d="M130.27,80.84A3.24,3.24,0,1,1,127,77.61,3.24,3.24,0,0,1,130.27,80.84Z" style="fill:#fff;opacity:0.7000000000000001"></path><path d="M154.61,84.08a3.24,3.24,0,1,1-3.24-3.24A3.23,3.23,0,0,1,154.61,84.08Z" style="fill:#fff;opacity:0.7000000000000001"></path><rect x="98.3" y="115.45" width="301.05" height="162.79" style="fill:#fff;opacity:0.2"></rect><path d="M191.51,67.81H158.73c-.71,0-.81,1.1-.1,1.1h32.78c.71,0,.81-1.1.1-1.1Z" style="fill:#17A2B8"></path><path d="M153.45,67.81h-4.14c-.71,0-.8,1.1-.09,1.1h4.14c.7,0,.8-1.1.09-1.1Z" style="fill:#17A2B8"></path><path d="M351.44,108.19H154.8a6.08,6.08,0,0,1-6.07-6.08h0A6.07,6.07,0,0,1,154.8,96H351.44a6.08,6.08,0,0,1,6.08,6.07h0A6.08,6.08,0,0,1,351.44,108.19Z" style="fill:#fff"></path><path d="M142.45,134.66H110.67a6.28,6.28,0,0,1-6.28-6.28h0a6.28,6.28,0,0,1,6.28-6.28h31.78a6.28,6.28,0,0,1,6.28,6.28h0A6.28,6.28,0,0,1,142.45,134.66Z" style="fill:#263238"></path><path d="M346.68,143.34h-175a10.62,10.62,0,0,1-10.62-10.62h0a10.62,10.62,0,0,1,10.62-10.62h175a10.61,10.61,0,0,1,10.62,10.62h0A10.61,10.61,0,0,1,346.68,143.34Z" style="fill:#fff"></path><rect x="345.23" y="168.51" width="29.11" height="29.11" style="fill:#fff"></rect><rect x="309.65" y="168.51" width="29.11" height="29.11" style="fill:#fff"></rect><rect x="160.59" y="189.77" width="90.82" height="7.91" style="fill:#17A2B8"></rect><rect x="160.59" y="189.77" width="90.82" height="7.91" style="opacity:0.1"></rect><rect x="305.29" y="211.24" width="72.62" height="7.91" style="fill:#17A2B8"></rect><rect x="305.29" y="211.24" width="72.62" height="7.91" style="opacity:0.1"></rect><rect x="160.59" y="205.23" width="118.24" height="2.48" style="fill:#263238"></rect><rect x="160.59" y="82.84" width="24.3" height="2.48" style="fill:#263238"></rect><rect x="160.59" y="215.31" width="99.65" height="2.48" style="fill:#263238"></rect><rect x="160.59" y="238.5" width="90.82" height="7.91" style="fill:#17A2B8"></rect><rect x="160.59" y="238.5" width="90.82" height="7.91" style="opacity:0.1"></rect><rect x="160.59" y="253.97" width="118.24" height="2.48" style="fill:#263238"></rect><rect x="160.59" y="264.05" width="99.65" height="2.48" style="fill:#263238"></rect><rect x="305.29" y="226.6" width="72.62" height="2.48" style="fill:#263238"></rect><rect x="305.29" y="236.68" width="59.21" height="2.48" style="fill:#263238"></rect><path d="M385.39,267.43H298.12V160.22h87.27Zm-85.77-1.5h84.27V161.72H299.62Z" style="fill:#17A2B8"></path><path d="M339.64,136.21a5.52,5.52,0,1,1,3.9-9.42h0a5.52,5.52,0,0,1-3.9,9.42Zm0-10.09a4.58,4.58,0,1,0,3.24,1.34h0A4.55,4.55,0,0,0,339.64,126.12Z" style="fill:#17A2B8"></path><rect x="346.33" y="134.66" width="0.94" height="6.37" transform="translate(4.1 285.6) rotate(-45)" style="fill:#17A2B8"></rect><rect x="343.74" y="134.09" width="0.94" height="2.34" transform="translate(5.17 283.01) rotate(-45)" style="fill:#17A2B8"></rect><path d="M163.84,156.38a2.57,2.57,0,0,1-1.83-.76,2.59,2.59,0,0,1,3.66-3.67h0a2.6,2.6,0,0,1,0,3.67A2.57,2.57,0,0,1,163.84,156.38Zm0-4.63a2,2,0,0,0-1.44.6,2,2,0,0,0,0,2.88,2,2,0,0,0,1.44.59,2,2,0,0,0,1.44-3.47h0A2,2,0,0,0,163.84,151.75Z" style="fill:#17A2B8"></path><rect x="166.84" y="155.61" width="0.56" height="2.92" transform="translate(-62.12 164.17) rotate(-45)" style="fill:#17A2B8"></rect><rect x="165.75" y="155.35" width="0.37" height="1.07" transform="translate(-61.63 162.96) rotate(-44.99)" style="fill:#17A2B8"></rect><path d="M171.82,134.16l.17-.29a2.49,2.49,0,0,0,1.74.67c1.06,0,1.53-.46,1.53-1,0-1.58-3.3-.63-3.3-2.58,0-.75.57-1.4,1.87-1.4a2.84,2.84,0,0,1,1.59.47l-.14.31a2.62,2.62,0,0,0-1.45-.44c-1,0-1.49.47-1.49,1,0,1.59,3.3.65,3.3,2.57,0,.75-.59,1.4-1.9,1.4A2.71,2.71,0,0,1,171.82,134.16Z" style="fill:#263238"></path><path d="M180.16,133h-3.39a1.69,1.69,0,0,0,2.93,1l.22.25a1.9,1.9,0,0,1-1.49.64,1.94,1.94,0,0,1-2-2,1.89,1.89,0,0,1,1.89-2,1.86,1.86,0,0,1,1.88,2S180.16,132.92,180.16,133Zm-3.38-.29h3a1.51,1.51,0,0,0-3,0Z" style="fill:#263238"></path><path d="M184.08,132.34v2.5h-.37v-.7a1.52,1.52,0,0,1-1.42.73c-.88,0-1.42-.45-1.42-1.13s.38-1.1,1.48-1.1h1.35v-.31a1,1,0,0,0-1.17-1.13,2,2,0,0,0-1.36.5l-.19-.27a2.39,2.39,0,0,1,1.58-.56A1.34,1.34,0,0,1,184.08,132.34Zm-.38,1.34v-.74h-1.35c-.81,0-1.1.34-1.1.79s.4.83,1.1.83A1.36,1.36,0,0,0,183.7,133.68Z" style="fill:#263238"></path><path d="M187.5,130.87v.37h-.09c-.88,0-1.4.58-1.4,1.56v2.05h-.38V130.9H186v.86A1.5,1.5,0,0,1,187.5,130.87Z" style="fill:#263238"></path><path d="M188.07,132.87a1.92,1.92,0,0,1,2-2,1.71,1.71,0,0,1,1.49.72l-.28.21a1.42,1.42,0,0,0-1.21-.59,1.66,1.66,0,0,0,0,3.32,1.42,1.42,0,0,0,1.21-.59l.28.21a1.74,1.74,0,0,1-1.49.72A1.93,1.93,0,0,1,188.07,132.87Z" style="fill:#263238"></path><path d="M196.16,132.54v2.3h-.38v-2.27a1.2,1.2,0,0,0-1.28-1.36,1.4,1.4,0,0,0-1.49,1.53v2.1h-.38v-5.6H193v2.48a1.63,1.63,0,0,1,1.55-.85A1.49,1.49,0,0,1,196.16,132.54Z" style="fill:#263238"></path><path d="M161,102.11v2.3h-.38v-2.27a1.19,1.19,0,0,0-1.28-1.36,1.41,1.41,0,0,0-1.49,1.53v2.1h-.38v-5.6h.38v2.48a1.63,1.63,0,0,1,1.55-.85A1.49,1.49,0,0,1,161,102.11Z" style="fill:#263238"></path><path d="M164.53,104.16a1.18,1.18,0,0,1-.81.28,1,1,0,0,1-1.07-1.07v-2.58h-.72v-.32h.72v-.86H163v.86h1.25v.32H163v2.54c0,.51.25.79.73.79a.89.89,0,0,0,.61-.22Z" style="fill:#263238"></path><path d="M167.43,104.16a1.17,1.17,0,0,1-.8.28,1,1,0,0,1-1.08-1.07v-2.58h-.72v-.32h.72v-.86h.38v.86h1.25v.32h-1.25v2.54c0,.51.25.79.73.79a.94.94,0,0,0,.62-.22Z" style="fill:#263238"></path><path d="M172.41,102.44a1.9,1.9,0,0,1-1.95,2,1.77,1.77,0,0,1-1.6-.93v2.37h-.37v-5.41h.36v.93a1.74,1.74,0,0,1,1.61-1A1.91,1.91,0,0,1,172.41,102.44Zm-.38,0a1.59,1.59,0,1,0-1.59,1.66A1.56,1.56,0,0,0,172,102.44Z" style="fill:#263238"></path><path d="M173,103.94l.18-.31a2.27,2.27,0,0,0,1.42.48c.83,0,1.16-.3,1.16-.74,0-1.15-2.61-.3-2.61-1.85,0-.6.5-1.08,1.49-1.08a2.44,2.44,0,0,1,1.35.38l-.17.31a2,2,0,0,0-1.19-.36c-.77,0-1.11.32-1.11.74,0,1.19,2.62.35,2.62,1.85,0,.64-.55,1.08-1.56,1.08A2.52,2.52,0,0,1,173,103.94Z" style="fill:#263238"></path><path d="M176.83,100.76a.32.32,0,0,1,.32-.32.31.31,0,0,1,.32.32.32.32,0,0,1-.32.32A.32.32,0,0,1,176.83,100.76Zm0,3.36a.32.32,0,0,1,.32-.32.32.32,0,1,1,0,.64A.32.32,0,0,1,176.83,104.12Z" style="fill:#263238"></path><path d="M180.55,98.05h.35l-2.49,7.12h-.35Z" style="fill:#263238"></path><path d="M182.49,98.05h.35l-2.49,7.12H180Z" style="fill:#263238"></path><path d="M185.29,154a3.24,3.24,0,1,1-3.23-3.24A3.23,3.23,0,0,1,185.29,154Z" style="fill:#17A2B8;opacity:0.7000000000000001"></path><path d="M201.82,154a3.24,3.24,0,1,1-3.23-3.24A3.23,3.23,0,0,1,201.82,154Z" style="fill:#17A2B8;opacity:0.7000000000000001"></path><path d="M218.35,154a3.24,3.24,0,1,1-3.23-3.24A3.23,3.23,0,0,1,218.35,154Z" style="fill:#17A2B8;opacity:0.7000000000000001"></path><path d="M234.88,154a3.24,3.24,0,1,1-3.23-3.24A3.23,3.23,0,0,1,234.88,154Z" style="fill:#17A2B8;opacity:0.7000000000000001"></path><path d="M251.41,154a3.24,3.24,0,1,1-3.23-3.24A3.23,3.23,0,0,1,251.41,154Z" style="fill:#17A2B8;opacity:0.7000000000000001"></path></g></svg>