 <svg  version="1.0" xmlns="http://www.w3.org/2000/svg"  width="300.000000pt" height="169.000000pt" viewBox="0 0 300.000000 169.000000"  preserveAspectRatio="xMidYMid meet">  <g transform="translate(0.000000,169.000000) scale(0.100000,-0.100000)" fill="#ffffff" stroke="none"> <path d="M705 1638 c-47 -25 -86 -74 -100 -123 -39 -138 -28 -229 37 -313 24 -30 47 -60 52 -67 6 -8 2 -30 -12 -63 -17 -40 -22 -70 -22 -144 0 -81 3 -99 28 -147 40 -81 117 -155 199 -192 77 -35 224 -79 266 -79 16 0 38 -5 49 -11 49 -26 393 -28 568 -4 l45 6 -50 -27 c-48 -25 -116 -88 -136 -127 -26 -47 42 -140 94 -130 19 4 29 -1 39 -16 7 -12 19 -21 28 -21 12 0 11 -3 -3 -17 -16 -16 -18 -16 -32 4 -12 16 -29 22 -93 27 -82 7 -132 -4 -132 -31 0 -19 -9 -16 -29 8 -32 40 -193 38 -231 -3 l-19 -21 -19 23 c-15 18 -31 23 -89 27 -59 5 -79 2 -115 -16 -52 -25 -54 -25 -61 -7 -4 11 12 21 61 37 37 12 77 31 90 42 60 55 -9 211 -118 267 -19 10 -66 28 -105 39 -74 23 -142 23 -262 0 -47 -9 -53 -13 -53 -35 0 -13 2 -24 4 -24 3 0 35 7 73 16 140 33 304 1 374 -73 70 -74 87 -125 56 -168 -20 -27 -37 -10 -37 38 0 42 -30 107 -49 107 -6 0 -4 -18 4 -41 26 -73 15 -111 -42 -143 -29 -16 -100 43 -109 90 -6 35 -64 100 -64 72 0 -9 6 -21 14 -27 37 -31 25 -114 -21 -151 -38 -30 -75 -25 -123 15 -44 37 -80 46 -80 20 0 -8 7 -15 16 -15 9 0 27 -9 41 -20 l26 -20 -42 0 c-22 0 -41 -4 -41 -10 0 -5 18 -10 39 -10 32 0 44 -6 66 -31 40 -49 31 -63 -43 -67 -61 -3 -62 -3 -62 -32 l0 -30 955 0 955 0 0 31 0 31 -50 -7 c-71 -10 -130 2 -130 26 0 32 43 51 115 51 61 0 65 1 65 22 0 17 -11 27 -47 43 -65 28 -110 43 -160 55 -24 5 -43 11 -43 14 0 2 10 22 21 45 21 39 21 42 6 75 -9 19 -21 34 -27 34 -13 0 -13 -6 2 -46 10 -27 8 -36 -11 -67 -11 -19 -36 -40 -54 -47 -17 -7 -49 -29 -69 -49 -45 -41 -100 -49 -125 -16 -18 24 -10 91 14 117 9 10 13 21 9 26 -9 9 -31 -20 -57 -74 -42 -88 -109 -114 -156 -60 -32 37 -29 65 12 125 20 28 32 51 27 51 -17 0 -72 -64 -78 -89 -8 -41 -20 -56 -40 -53 -21 4 -54 38 -54 57 0 27 48 81 108 121 72 48 134 65 337 89 160 18 213 18 290 0 84 -20 95 -19 95 8 0 21 -7 25 -64 36 -72 14 -204 18 -253 7 -56 -13 -36 9 25 28 79 25 133 58 180 111 39 44 40 47 44 138 3 50 1 106 -3 122 -4 17 -10 55 -13 87 -6 53 -4 58 29 98 50 60 78 159 74 259 -4 67 -8 84 -34 121 -38 55 -98 92 -157 98 -41 4 -57 -1 -125 -38 -180 -98 -159 -91 -216 -77 -54 12 -642 17 -862 7 -107 -5 -111 -4 -145 21 -51 39 -183 99 -217 99 -15 0 -37 -6 -48 -12z m154 -67 c16 -12 46 -28 65 -36 41 -17 46 -30 15 -38 -26 -7 -20 -33 7 -31 10 1 64 7 119 14 149 19 819 19 906 1 79 -17 86 -15 227 66 51 29 100 53 110 53 30 0 121 -59 136 -88 21 -40 32 -147 16 -157 -16 -10 -26 7 -40 76 -9 40 -21 66 -41 85 l-28 27 -30 -49 c-28 -43 -29 -49 -16 -64 10 -11 15 -37 15 -73 0 -47 -3 -57 -20 -62 -27 -9 -26 -17 14 -88 54 -97 69 -165 70 -304 1 -141 -6 -157 -90 -208 -61 -37 -224 -96 -324 -118 -160 -35 -417 -60 -560 -54 -342 15 -616 120 -697 268 -14 26 -18 56 -18 131 0 53 4 100 8 104 15 16 27 -21 27 -88 0 -37 5 -79 11 -95 25 -68 98 -115 244 -157 148 -43 170 -36 199 65 15 52 19 58 58 74 81 32 128 99 128 183 0 43 3 50 25 60 36 16 129 15 170 -2 33 -14 35 -18 35 -63 0 -80 33 -132 108 -172 68 -35 92 -70 92 -129 0 -80 89 -87 287 -23 142 46 202 81 229 133 21 40 22 114 1 154 -11 21 -12 36 -5 54 12 32 4 125 -13 143 -16 17 -31 0 -118 -133 -35 -52 -72 -105 -83 -117 -29 -31 -15 -42 20 -16 15 11 41 27 59 36 18 10 46 37 63 62 35 51 56 59 45 18 -16 -67 -143 -153 -278 -189 -58 -15 -217 -19 -217 -5 0 14 27 21 81 21 53 0 76 15 111 76 10 16 40 61 68 99 49 68 90 137 90 151 0 4 -39 4 -87 1 -76 -5 -90 -9 -103 -29 -37 -55 -214 -270 -226 -275 -28 -11 -65 8 -78 38 -18 43 -10 69 40 130 24 30 58 74 75 98 l32 44 -36 -6 c-103 -19 -113 -19 -95 -4 10 8 15 17 11 21 -4 3 -17 -4 -30 -16 -21 -20 -25 -20 -49 -7 -35 18 -215 20 -221 2 -7 -19 -24 -16 -48 7 -26 24 -90 37 -228 46 -74 5 -106 3 -111 -5 -5 -8 13 -11 61 -11 92 -1 248 -24 267 -40 16 -12 22 -40 9 -40 -3 0 -14 7 -24 16 -10 9 -22 13 -28 10 -6 -4 -36 -55 -67 -114 -32 -59 -66 -119 -76 -134 -10 -14 -18 -29 -18 -33 0 -4 27 -5 59 -1 38 4 62 3 66 -4 23 -38 -214 -39 -325 -1 -83 29 -124 61 -154 119 -35 69 -40 92 -23 92 9 0 18 -6 21 -12 3 -9 10 -7 21 7 22 27 58 96 52 101 -2 3 -17 0 -32 -6 -44 -17 -57 6 -14 24 19 9 28 15 20 16 -10 0 -12 9 -7 34 5 27 3 37 -11 44 -24 14 -28 118 -5 131 13 7 11 13 -11 43 -15 19 -33 51 -42 72 -19 45 -32 39 -64 -28 -23 -46 -29 -154 -11 -200 5 -15 6 -28 0 -31 -18 -11 -30 36 -30 120 0 117 24 173 94 216 25 15 33 16 72 4 23 -7 56 -22 73 -34z m-140 -118 c5 -10 8 -47 7 -83 -1 -36 4 -77 11 -92 17 -35 16 -60 -1 -84 -15 -19 -15 -19 -37 3 -20 20 -23 34 -25 115 -3 125 18 191 45 141z m1666 -46 c9 -31 28 -65 44 -81 25 -24 28 -32 21 -57 -11 -37 -49 -99 -60 -99 -5 0 -21 20 -36 46 -26 45 -26 45 -9 78 14 26 17 47 13 100 -3 36 -2 66 3 66 5 0 15 -24 24 -53z m-824 -267 c38 -21 17 -29 -86 -32 -58 -2 -105 -1 -105 1 0 3 7 13 17 23 13 14 31 18 85 18 38 0 78 -5 89 -10z m112 -29 c17 -6 17 -8 -3 -34 -26 -33 -33 -34 -54 -2 -16 24 -16 26 6 35 27 11 28 11 51 1z m385 -6 c-6 -31 -144 -215 -163 -219 -47 -11 -95 -14 -95 -8 0 4 43 60 96 125 89 109 97 117 130 117 26 0 35 -4 32 -15z m-713 -32 c-4 -10 -11 -41 -15 -69 -9 -58 -19 -81 -47 -107 -19 -16 -22 -16 -54 -1 -19 10 -35 18 -37 20 -4 2 30 71 65 132 22 37 29 42 60 42 30 0 34 -3 28 -17z m945 -195 c0 -65 -50 -105 -188 -152 -127 -42 -200 -57 -230 -49 -22 5 -47 66 -36 85 3 4 34 8 69 8 102 0 239 50 330 119 22 17 43 31 48 31 4 0 7 -19 7 -42z m-1449 -33 c68 -31 157 -53 234 -58 55 -4 60 -6 63 -29 2 -14 -5 -31 -18 -43 -20 -18 -22 -18 -103 4 -117 32 -173 59 -207 98 -26 30 -38 53 -26 53 2 0 28 -11 57 -25z m1449 -626 c84 -32 107 -49 66 -49 -35 0 -56 -10 -56 -26 0 -21 -18 -17 -25 6 -6 20 -35 28 -35 10 0 -5 7 -10 15 -10 10 0 15 -11 15 -35 l0 -35 -115 0 -115 0 0 25 c0 48 31 65 118 65 58 1 73 3 59 11 -10 6 -35 8 -58 4 -21 -4 -39 -4 -39 -1 0 6 79 66 87 66 2 0 39 -14 83 -31z m-1370 -26 c30 -12 66 -73 57 -97 -5 -13 -24 -16 -121 -16 -64 0 -117 4 -121 10 -10 16 14 53 68 102 50 45 53 46 72 29 11 -9 31 -22 45 -28z m1038 -1 c2 -7 -7 -12 -23 -12 -24 0 -26 2 -15 15 14 17 31 16 38 -3z m-746 -42 c10 -13 18 -33 16 -44 -3 -20 -9 -21 -108 -21 l-105 0 -3 32 c-5 48 26 65 112 61 58 -3 71 -8 88 -28z m260 8 c25 -20 31 -54 13 -72 -17 -17 -104 -22 -178 -9 -37 6 -39 7 -33 36 3 17 11 36 17 44 15 17 159 18 181 1z m263 -12 c28 -19 34 -60 9 -70 -20 -8 -152 -8 -181 0 -17 5 -23 14 -23 35 0 44 33 61 107 56 35 -3 74 -12 88 -21z m239 8 c8 -3 22 -16 30 -29 14 -22 14 -25 0 -39 -17 -17 -85 -21 -168 -10 -42 6 -46 9 -46 34 0 46 33 61 117 54 28 -2 58 -7 67 -10z"/> <path d="M1879 1219 c-253 -15 -212 -27 77 -21 192 3 276 2 291 -7 14 -7 24 -8 28 -1 20 32 -145 44 -396 29z"/> <path d="M1004 1163 c-12 -2 -29 -21 -41 -46 -11 -23 -39 -77 -61 -120 l-41 -78 42 -19 c64 -30 93 -26 113 13 9 17 43 76 75 129 32 53 60 102 61 108 3 12 -107 22 -148 13z m76 -48 c0 -12 -92 -174 -105 -185 -10 -8 -19 -8 -34 -1 -19 11 -19 13 -4 49 8 20 29 61 46 90 28 46 36 52 64 52 18 0 33 -2 33 -5z"/> <path d="M1408 879 c-27 -15 -22 -37 15 -59 42 -26 51 -25 89 8 45 41 34 62 -34 62 -29 0 -61 -5 -70 -11z"/> <path d="M1630 748 c-25 -54 -123 -89 -203 -74 -19 4 -55 22 -80 41 -48 37 -64 35 -44 -6 17 -34 87 -69 149 -76 75 -7 130 11 180 58 35 33 46 39 60 30 24 -15 28 -14 28 7 0 24 -31 52 -56 52 -11 0 -25 -13 -34 -32z"/> </g> </svg> 